<?xml version="1.0" encoding="UTF-8"?>
<svg xmlns="http://www.w3.org/2000/svg" viewBox="0 0 512 512" role="img" aria-labelledby="title desc">
  <title id="title">Inspection service icon</title>
  <desc id="desc">Transparent-background line icon of a car on a service lift with a gear and wrench, suitable for inspection, maintenance, and repair.</desc>
  <g fill="none" stroke="#FFFFFF" stroke-width="10" stroke-linecap="round" stroke-linejoin="round">
    <!-- Lift posts -->
    <path d="M95 292 V365"/>
    <path d="M333 292 V365"/>
    <!-- Lift arms -->
    <path d="M155 337 H284"/>
    <path d="M315 337 H358"/>
    <!-- Base line -->
    <path d="M76 386 H374"/>
    <!-- Car outer body -->
    <path d="M140 264 L166 226 Q177 210 197 210 H252 Q272 210 283 226 L309 264"/>
    <path d="M135 270 Q124 276 123 290 V321 Q123 335 137 335 H311 Q325 335 325 321 V290 Q324 276 313 270"/>
    <!-- Windshield -->
    <path d="M178 235 H271"/>
    <!-- Lights and grille -->
    <path d="M156 292 Q168 295 184 300"/>
    <path d="M279 300 Q295 295 307 292"/>
    <path d="M205 305 H246"/>
    <path d="M171 319 H261"/>
    <!-- Right support -->
    <path d="M362 271 V386"/>
    <path d="M333 386 H380"/>
    <!-- Small details -->
    <path d="M143 260 H160"/>
    <path d="M289 260 H306"/>
    <!-- Gear -->
    <path d="M86 330 
             L75 319 L58 329 L58 309 L40 304 L47 286 L33 274 L47 260 L40 242 L58 237 
             L58 217 L75 227 L86 216 L100 230 L118 223 L123 242 L142 245 L137 264 L151 276
             L137 288 L142 307 L123 310 L118 329 L100 322 Z"/>
    <circle cx="90" cy="273" r="28"/>
    <!-- Wrench -->
    <path d="M58 332 L129 261"/>
    <path d="M138 252
             Q148 242 162 243
             L147 258
             L160 271
             L175 256
             Q174 270 164 280
             Q151 293 132 287
             L70 349
             Q64 355 55 355
             Q47 355 41 349
             Q35 343 35 335
             Q35 326 41 320
             L103 258
             Q97 239 110 226
             Q120 216 134 217
             L119 232
             L132 245 Z"/>
  </g>
</svg>
