<?xml version="1.0" encoding="UTF-8"?>
<svg xmlns="http://www.w3.org/2000/svg" viewBox="0 0 512 512" role="img" aria-labelledby="title desc">
  <title id="title">BeCool Car Sales Icon — Blue Accent</title>
  <desc id="desc">Front-facing premium sports car icon for GARAGE BeCool. Transparent background.</desc>
  <g fill="none" stroke="#FFFFFF" stroke-width="11" stroke-linecap="round" stroke-linejoin="round">
    <!-- Roof / windshield -->
    <path d="M126 231 L171 158 Q184 139 213 139 H299 Q328 139 341 158 L386 231"/>

    <!-- Mirrors -->
    <path d="M126 231 L110 211 Q105 205 94 205 H77 L82 218 Q86 226 102 228 L126 232"/>
    <path d="M386 231 L402 211 Q407 205 418 205 H435 L430 218 Q426 226 410 228 L386 232"/>

    <!-- Outer fenders / body -->
    <path d="M128 232 Q98 237 92 267 Q89 283 89 303 V351"/>
    <path d="M384 232 Q414 237 420 267 Q423 283 423 303 V351"/>

    <!-- Hood shoulders -->
    <path d="M132 235 L212 314 H300 L380 235"/>
    <path d="M137 236 L202 241"/>
    <path d="M375 236 L310 241"/>

    <!-- Lower bumper and intakes -->
    <path d="M116 349 L126 323 Q130 312 143 311 H185"/>
    <path d="M396 349 L386 323 Q382 312 369 311 H327"/>
    <path d="M116 349 H188 L219 286 Q224 276 237 276 H275 Q288 276 293 286 L324 349 H396"/>
    <path d="M214 349 H298"/>
  </g>

  <!-- Headlights -->
  <g fill="none" stroke="#5AA6FF" stroke-width="9" stroke-linecap="round" stroke-linejoin="round">
    <path d="M113 272 Q133 281 169 292 L191 303 Q160 300 129 293 Q118 289 113 272 Z"/>
    <path d="M399 272 Q379 281 343 292 L321 303 Q352 300 383 293 Q394 289 399 272 Z"/>
  </g>
</svg>
