<svg xmlns="http://www.w3.org/2000/svg" width="1000" height="750" viewBox="0 0 1000 750" role="img" aria-label="Work placeholder 5">
  <defs>
    <linearGradient id="bg" x1="0" y1="0" x2="1" y2="1">
      <stop offset="0" stop-color="rgb(234,230,226)"/>
      <stop offset="1" stop-color="rgb(188,182,186)"/>
    </linearGradient>
  </defs>
  <rect width="1000" height="750" fill="url(#bg)"/>
  <polygon points="1023,-155 1023,213 703,398 383,213 383,-155 703,-340" fill="none" stroke="rgb(43,43,43)" stroke-width="2" opacity="0.056"/>
  <polygon points="949,443 949,683 741,803 533,683 533,443 741,323" fill="none" stroke="rgb(68,68,68)" stroke-width="2" opacity="0.091"/>
  <polygon points="275,26 275,171 149,243 23,171 23,26 149,-47" fill="none" stroke="rgb(90,90,90)" stroke-width="2" opacity="0.147"/>
  <polygon points="636,117 636,278 497,358 358,278 358,117 497,36" fill="none" stroke="rgb(107,107,107)" stroke-width="2" opacity="0.106"/>
  <rect x="-50" y="746" width="1100" height="82" transform="rotate(6.4 500 375)" fill="rgb(106,106,106)" opacity="0.129"/>
</svg>
