<svg xmlns="http://www.w3.org/2000/svg" viewBox="480 160 480 580">
  <defs>
    <linearGradient id="g" gradientUnits="userSpaceOnUse" x1="532" y1="193" x2="915" y2="691">
      <stop offset="0" stop-color="#1e3252"/>
      <stop offset="0.5" stop-color="#2f6bb0"/>
      <stop offset="1" stop-color="#5aa2ec"/>
    </linearGradient>
  </defs>
  <path d="M 914.5 332.5 L 901.75 339.5 L 871 358.5 L 846.5 372.5 L 746.5 432.5 L 746.75 662.75 L 746 680.75 L 902.5 579 L 915 570.25 L 915 471.5 L 895.5 455.25 L 915 409 L 915 333 Z M 864.25 420 L 864.75 420.75 L 850.25 466.25 L 815.75 488.75 L 815.25 489.75 L 815 534.5 L 816.75 535 L 867 503.5 L 867.5 504 L 867.5 538 L 855.25 546.5 L 797.5 583 L 797.25 460.5 Z M 533.25 332.25 L 532.75 332.75 L 533 570.5 L 722.75 691 L 723.75 691 L 724.25 678.25 L 724 409.75 L 722.5 409.75 L 716 414.5 L 673.25 441.5 L 618.75 475 L 617.75 476.75 L 618.25 534.75 L 622.25 533 L 669.75 503.25 L 670.5 503.5 L 670.75 589.25 L 670 589.75 L 587.5 537.75 L 587.75 392 L 587.25 365.75 L 535 332.75 Z M 723.75 312 L 641.75 363.5 L 614.75 379.75 L 614.25 385.5 L 614.5 437.75 L 616 437.5 L 724 369 L 724.25 312.5 Z M 535.25 310.25 L 535.75 312 L 542.25 315.25 L 586 341.25 L 587.75 341.25 L 643.5 305.25 L 724.25 255 L 863.75 341 L 905.5 315.5 L 913.25 311.5 L 913.25 309.75 L 893.75 298.5 L 724.5 193.5 Z" fill="url(#g)" fill-rule="evenodd"/>
</svg>
