<svg xmlns="http://www.w3.org/2000/svg"
  viewBox="138 165 1176 771"
  role="img" aria-labelledby="title desc">
  <title id="title">GARAGE BeCool ロゴ</title>
  <desc id="desc">GBキューブシンボル、garage becoolワードマーク、SINCE 1999。</desc>
  <defs>
    <linearGradient id="gbGradient" x1="0%" y1="0%" x2="100%" y2="100%">
      <stop offset="0%" stop-color="#4A4F55"/>
      <stop offset="55%" stop-color="#31557C"/>
      <stop offset="100%" stop-color="#1F63B6"/>
    </linearGradient>
  </defs>
  <g fill-rule="evenodd">
    <path d="M 864 421 L 865 425 L 851 467 L 816 490 L 816 535 L 818 535 L 865 505 L 867 505 L 868 506 L 868 539 L 832 563 L 799 583 L 797 581 L 797 462 L 800 459 Z M 915 334 L 903 340 L 898 344 L 893 346 L 888 350 L 883 352 L 873 359 L 846 374 L 841 378 L 748 433 L 748 680 L 915 571 L 915 472 L 896 456 L 903 437 L 915 411 Z M 534 334 L 534 571 L 631 632 L 637 637 L 647 642 L 664 654 L 724 691 L 724 411 L 619 477 L 619 534 L 620 535 L 669 504 L 672 505 L 672 589 L 669 590 L 598 546 L 587 538 L 587 515 L 588 514 L 587 513 L 587 483 L 588 482 L 587 479 L 588 477 L 588 467 L 587 466 L 587 457 L 588 456 L 587 452 L 587 423 L 588 422 L 587 366 L 552 345 L 536 334 Z M 724 313 L 716 319 L 616 381 L 616 438 L 724 369 Z M 537 311 L 540 314 L 586 341 L 588 341 L 725 255 L 864 341 L 913 312 L 912 310 L 904 306 L 901 303 L 896 301 L 859 277 L 725 195 Z" fill="url(#gbGradient)"/>
    <path d="M 465 793 L 472 789 L 516 789 L 517 790 L 517 800 L 516 801 L 469 801 L 465 798 Z M 288 793 L 291 790 L 294 789 L 302 789 L 303 790 L 306 789 L 339 789 L 341 791 L 341 800 L 340 801 L 292 801 L 288 798 Z M 665 776 L 666 772 L 670 768 L 675 766 L 714 766 L 718 769 L 718 773 L 713 777 L 666 777 Z M 651 765 L 649 770 L 649 779 L 648 780 L 649 798 L 654 808 L 659 812 L 670 816 L 731 816 L 725 801 L 673 801 L 670 800 L 665 794 L 666 791 L 716 791 L 727 787 L 731 783 L 734 777 L 734 765 L 731 759 L 727 755 L 717 751 L 672 751 L 659 756 Z M 558 756 L 552 762 L 548 771 L 548 798 L 553 808 L 559 813 L 568 816 L 611 816 L 612 815 L 612 801 L 572 801 L 569 800 L 564 794 L 563 778 L 565 772 L 568 769 L 574 766 L 618 766 L 619 767 L 619 817 L 617 822 L 613 826 L 608 828 L 560 828 L 555 839 L 623 839 L 626 837 L 631 831 L 635 820 L 635 751 L 570 751 L 563 753 Z M 458 751 L 454 766 L 508 766 L 511 767 L 516 772 L 516 774 L 515 775 L 466 775 L 458 778 L 451 785 L 448 794 L 449 803 L 451 807 L 457 813 L 465 816 L 533 816 L 533 770 L 530 763 L 526 758 L 518 753 L 511 751 Z M 441 751 L 396 751 L 384 755 L 376 763 L 372 773 L 372 816 L 387 816 L 388 815 L 388 785 L 387 784 L 387 779 L 389 773 L 394 768 L 399 766 L 435 766 Z M 282 751 L 277 766 L 331 766 L 337 769 L 340 774 L 339 775 L 288 775 L 279 779 L 274 784 L 272 788 L 271 800 L 274 807 L 280 813 L 289 816 L 357 816 L 357 772 L 354 764 L 347 756 L 334 751 Z M 179 756 L 173 762 L 170 768 L 168 776 L 169 798 L 173 807 L 177 811 L 182 814 L 189 816 L 235 816 L 235 802 L 234 801 L 193 801 L 190 800 L 186 796 L 184 791 L 184 777 L 186 772 L 190 768 L 195 766 L 241 766 L 242 767 L 242 817 L 240 822 L 236 826 L 230 828 L 182 828 L 177 839 L 246 839 L 249 837 L 256 827 L 258 818 L 258 751 L 191 751 Z" fill="#4A4F55"/>
    <path d="M 700 801 L 700 816 L 731 816 L 725 801 Z M 1184 773 L 1187 769 L 1193 766 L 1230 766 L 1234 768 L 1238 774 L 1238 793 L 1232 800 L 1228 801 L 1192 801 L 1189 800 L 1185 797 L 1183 793 L 1183 776 Z M 1083 772 L 1091 766 L 1128 766 L 1131 767 L 1136 772 L 1137 775 L 1137 792 L 1136 795 L 1132 799 L 1127 801 L 1092 801 L 1088 800 L 1084 797 L 1082 793 L 1082 775 Z M 892 776 L 894 771 L 897 768 L 903 766 L 941 766 L 944 767 L 946 770 L 946 773 L 943 776 L 895 776 L 894 777 Z M 700 751 L 700 766 L 714 766 L 718 769 L 718 773 L 713 777 L 700 777 L 700 791 L 716 791 L 727 787 L 731 783 L 734 777 L 734 765 L 731 759 L 727 755 L 717 751 Z M 1168 766 L 1166 773 L 1166 794 L 1167 799 L 1171 807 L 1180 814 L 1186 816 L 1235 816 L 1245 812 L 1250 807 L 1254 797 L 1254 769 L 1250 761 L 1244 755 L 1238 752 L 1228 751 L 1227 750 L 1218 750 L 1217 751 L 1194 750 L 1193 751 L 1187 751 L 1175 757 Z M 1071 760 L 1066 770 L 1066 798 L 1071 808 L 1077 813 L 1085 816 L 1134 816 L 1142 813 L 1149 807 L 1153 797 L 1153 770 L 1149 761 L 1143 755 L 1133 751 L 1126 751 L 1125 750 L 1086 751 L 1080 753 Z M 979 762 L 975 772 L 975 797 L 978 805 L 982 810 L 988 814 L 994 816 L 1054 816 L 1048 801 L 1001 801 L 997 800 L 993 796 L 991 791 L 991 778 L 996 769 L 1003 766 L 1047 766 L 1052 756 L 1053 751 L 1030 751 L 1029 750 L 996 751 L 985 756 Z M 879 763 L 876 771 L 876 796 L 880 806 L 886 812 L 895 816 L 960 816 L 960 813 L 954 801 L 902 801 L 898 800 L 893 795 L 894 791 L 946 791 L 954 788 L 959 784 L 962 778 L 962 773 L 963 772 L 961 762 L 957 756 L 947 751 L 940 751 L 939 750 L 933 750 L 932 751 L 927 750 L 923 751 L 921 750 L 920 751 L 910 751 L 909 750 L 896 751 L 884 757 Z M 1284 730 L 1269 734 L 1269 816 L 1284 816 Z M 775 730 L 775 796 L 779 806 L 785 812 L 795 816 L 843 816 L 853 812 L 859 806 L 863 796 L 863 773 L 859 762 L 852 755 L 843 751 L 828 751 L 827 750 L 798 751 L 798 766 L 837 766 L 840 767 L 846 774 L 846 793 L 844 797 L 837 801 L 801 801 L 796 799 L 791 792 L 791 738 L 787 734 Z" fill="#1F63B6"/>
    <path d="M 969 890 L 969 893 L 1110 893 L 1110 890 Z M 339 890 L 339 893 L 481 893 L 481 890 Z M 915 887 L 918 883 L 925 883 L 928 886 L 928 890 L 924 893 L 920 893 L 915 889 Z M 871 886 L 874 883 L 880 883 L 883 886 L 883 890 L 879 893 L 875 893 L 871 890 Z M 826 890 L 826 886 L 829 883 L 835 883 L 839 887 L 838 890 L 834 893 L 830 893 Z M 918 880 L 912 886 L 913 892 L 917 895 L 926 895 L 928 894 L 929 896 L 928 899 L 923 903 L 914 902 L 914 905 L 924 906 L 929 903 L 932 898 L 932 887 L 927 881 Z M 874 880 L 871 881 L 868 885 L 869 893 L 872 895 L 881 895 L 883 894 L 884 898 L 878 903 L 870 902 L 869 905 L 879 906 L 886 901 L 888 895 L 887 886 L 884 882 L 880 880 Z M 829 880 L 824 883 L 822 887 L 823 891 L 827 895 L 836 895 L 838 894 L 839 898 L 833 903 L 825 902 L 824 905 L 834 906 L 837 905 L 841 901 L 843 896 L 843 889 L 841 884 L 838 881 Z M 787 880 L 786 883 L 791 883 L 792 884 L 792 905 L 793 906 L 796 904 L 795 903 L 796 901 L 795 880 Z M 710 880 L 710 905 L 711 906 L 723 906 L 724 905 L 728 906 L 729 903 L 714 903 L 713 902 L 713 895 L 714 894 L 726 894 L 727 893 L 726 891 L 714 891 L 713 890 L 713 884 L 714 883 L 728 883 L 728 880 Z M 668 880 L 664 882 L 659 887 L 658 896 L 659 899 L 664 904 L 669 906 L 675 906 L 681 903 L 681 901 L 679 900 L 675 903 L 667 902 L 662 896 L 662 890 L 669 883 L 675 883 L 680 886 L 681 883 L 675 880 Z M 607 880 L 607 905 L 608 906 L 611 905 L 611 890 L 612 889 L 617 893 L 627 905 L 630 905 L 630 880 L 626 881 L 627 882 L 627 894 L 625 896 L 618 890 L 610 880 Z M 573 880 L 573 905 L 576 905 L 576 880 Z M 532 880 L 529 881 L 526 884 L 527 892 L 531 894 L 538 895 L 542 899 L 538 903 L 532 903 L 526 900 L 525 903 L 532 906 L 538 906 L 541 905 L 545 901 L 545 896 L 542 893 L 532 891 L 529 888 L 529 886 L 532 883 L 540 883 L 543 885 L 544 882 L 539 880 Z M 553 843 L 613 843 L 622 840 L 629 834 L 631 830 L 559 830 Z" fill="#4A4F55"/>
  </g>
</svg>
